HIERARCHY
ROOT Hips
{
	OFFSET 0.00000 0.00000 0.00000
	CHANNELS 6 Xposition Yposition Zposition Zrotation Yrotation Xrotation 
	JOINT LHipJoint
	{
		OFFSET 0 0 0
		CHANNELS 3 Zrotation Yrotation Xrotation
		JOINT LeftHip
		{
			OFFSET 1.57338 -1.94743 0.52196
			CHANNELS 3 Zrotation Yrotation Xrotation
			JOINT LeftKnee
			{
				OFFSET 2.60333 -7.15259 0.00000
				CHANNELS 3 Zrotation Yrotation Xrotation
				JOINT LeftAnkle
				{
					OFFSET 2.77855 -7.63400 0.00000
					CHANNELS 3 Zrotation Yrotation Xrotation
					JOINT LeftToe
					{
						OFFSET 0.19847 -0.54529 2.28466
						CHANNELS 3 Zrotation Yrotation Xrotation
						End Site
						{
							OFFSET 0.00000 -0.00000 1.17993
						}
					}
				}
			}
		}
	}
	JOINT RHipJoint
	{
		OFFSET 0 0 0
		CHANNELS 3 Zrotation Yrotation Xrotation
		JOINT RightHip
		{
			OFFSET -1.61527 -1.94743 0.52196
			CHANNELS 3 Zrotation Yrotation Xrotation
			JOINT RightKnee
			{
				OFFSET -2.53829 -6.97390 0.00000
				CHANNELS 3 Zrotation Yrotation Xrotation
				JOINT RightAnkle
				{
					OFFSET -2.80762 -7.71387 0.00000
					CHANNELS 3 Zrotation Yrotation Xrotation
					JOINT RightToe
					{
						OFFSET -0.30536 -0.83898 2.28801
						CHANNELS 3 Zrotation Yrotation Xrotation
						End Site
						{
							OFFSET -0.00000 -0.00000 1.21323
						}
					}
				}
			}
		}
	}
	JOINT lowerback
	{
		OFFSET 0 0 0
		CHANNELS 3 Zrotation Yrotation Xrotation
		JOINT Chest
		{
			OFFSET -0.04381 1.99497 -0.19778
			CHANNELS 3 Zrotation Yrotation Xrotation
			JOINT Chest2
			{
				OFFSET -0.01959 2.01295 -0.04372
				CHANNELS 3 Zrotation Yrotation Xrotation
				JOINT lowerneck
				{
					OFFSET 0 0 0
					CHANNELS 3 Zrotation Yrotation Xrotation
					JOINT Neck
					{
						OFFSET -0.05459 1.76913 0.09708
						CHANNELS 3 Zrotation Yrotation Xrotation
						JOINT Head
						{
							OFFSET 0.09461 1.77368 -0.11172
							CHANNELS 3 Zrotation Yrotation Xrotation
							End Site
							{
								OFFSET 0.03812 1.78157 -0.04834
							}
						}
					}
				}
				JOINT LeftCollar
				{
					OFFSET 0 0 0
					CHANNELS 3 Zrotation Yrotation Xrotation
					JOINT LeftShoulder
					{
						OFFSET 3.50922 1.24034 -0.28866
CHANNELS 3 Zrotation Xrotation Yrotation
						JOINT LeftElbow
						{
OFFSET 0 -5.401880 0.000000
CHANNELS 3 Zrotation Xrotation Yrotation
							JOINT LeftWrist
							{
OFFSET 0 -3.685590 0.000000
CHANNELS 3 Zrotation Xrotation Yrotation
								JOINT lhand
								{
									OFFSET 0 0 0
CHANNELS 3 Zrotation Xrotation Yrotation
									JOINT LFingers
									{
OFFSET 0 -0.617530 0.000000
CHANNELS 3 Zrotation Xrotation Yrotation
										End Site
										{
OFFSET 0 -0.497870 0.000000
										}
									}
								}
								JOINT LThumb
								{
OFFSET 0 0.000000 0.000000
CHANNELS 3 Zrotation Xrotation Yrotation
									End Site
									{
OFFSET 0 -0.505470 0.505470
									}
								}
							}
						}
					}
				}
				JOINT RightCollar
				{
					OFFSET 0 0 0
					CHANNELS 3 Zrotation Yrotation Xrotation
					JOINT RightShoulder
					{
						OFFSET -2.95373 1.39649 -0.27346
CHANNELS 3 Zrotation Xrotation Yrotation
						JOINT RightElbow
						{
OFFSET 0 -6.106700 -0.000000
CHANNELS 3 Zrotation Xrotation Yrotation
							JOINT RightWrist
							{
OFFSET 0 -3.630520 0.000000
CHANNELS 3 Zrotation Xrotation Yrotation
								JOINT rhand
								{
									OFFSET 0 0 0
CHANNELS 3 Zrotation Xrotation Yrotation
									JOINT RFingers
									{
OFFSET 0 -0.583850 0.000000
CHANNELS 3 Zrotation Xrotation Yrotation
										End Site
										{
OFFSET 0 -0.470710 0.000000
										}
									}
								}
								JOINT RThumb
								{
OFFSET 0 0.000000 0.000000
CHANNELS 3 Zrotation Xrotation Yrotation
									End Site
									{
OFFSET 0 -0.477900 0.477900
									}
								}
							}
						}
					}
				}
			}
		}
	}
}
MOTION
Frames: 8
Frame Time: 0.008333333333333333
-1.838084 18.617581 1.591871 -358.672290 23.024165 359.898125 0.000000 0.000000 0.000000 -25.008214 -9.522079 -4.150952 1.834711 8.513030 24.283506 0.501572 -6.740764 -12.760412 0.205391 2.917947 8.050312 0.000000 0.000000 0.000000 15.907959 22.097386 -12.970813 -4.951252 -13.328320 40.610950 -0.646275 -11.924119 -23.803560 -0.039450 1.279709 -3.518744 -4.668796 1.359705 6.636036 -1.793431 1.469908 1.771799 0.647889 0.751925 -1.958826 -3.967032 3.224295 -7.505662 6.949312 3.710669 28.963031 3.575802 2.165144 10.197664 0.000000 0.000000 0.000000 10.692248 0.277186 -21.435645 15.325011 -24.596875 3.360070 22.704149 19.407804 -22.180230 0.000000 0.000000 0.000000 -7.125000 0.000000 0.000000 -6.492048 53.705985 1.394282 0.000000 0.000000 0.000000 -7.985062 9.194844 19.852031 -19.411708 -29.927088 -5.234701 -32.167000 18.247616 -6.769767 0.000000 0.000000 0.000000 7.125000 0.000000 0.000000 -3.938966 22.003798 -2.181317
-1.800240 18.618390 1.730760 -358.808990 25.202702 360.337185 0.000000 0.000000 0.000000 -24.678090 -10.135465 -3.982497 1.796704 8.429111 24.025243 0.412911 -8.189398 -11.987667 0.231375 3.095901 8.545933 0.000000 0.000000 0.000000 15.634088 24.615765 -13.504902 -4.011574 -12.174666 36.354265 -0.714916 -8.488266 -21.236636 -0.191131 2.814529 -7.762832 -4.496758 1.452442 6.784390 -1.755224 1.596716 1.767337 0.576643 0.816779 -2.048695 -4.317496 3.089359 -7.834706 7.220932 3.541535 28.876549 3.724655 2.090954 10.224956 0.000000 0.000000 0.000000 10.755131 -0.133260 -21.600566 15.758674 -25.192304 3.542615 22.562477 18.752175 -21.341613 0.000000 0.000000 0.000000 -7.125000 0.000000 0.000000 -6.358507 52.802618 1.225141 0.000000 0.000000 0.000000 -7.982558 9.042293 19.414753 -19.296601 -29.785547 -5.177369 -32.402012 18.552596 -6.299951 0.000000 0.000000 0.000000 7.125000 0.000000 0.000000 -4.150634 22.536230 -2.248583
-1.745615 18.642478 1.878849 -358.591758 27.299393 360.786511 0.000000 0.000000 0.000000 -24.804655 -10.712965 -3.033481 1.630964 8.050765 22.868398 0.301147 -9.270828 -10.952413 0.312350 3.591681 9.930717 0.000000 0.000000 0.000000 14.933670 27.700900 -13.341914 -3.134429 -10.907824 31.971497 -0.733094 -4.470671 -18.412337 -0.266198 3.318988 -9.168069 -4.520615 1.500998 6.796447 -1.719989 1.665085 1.857399 0.621531 0.849294 -1.966850 -4.610638 2.957606 -7.782605 7.119970 3.456181 28.698100 3.722585 2.016459 10.151357 0.000000 0.000000 0.000000 10.403208 -0.398869 -21.359784 16.123950 -25.688459 3.699538 22.370432 18.395791 -21.934269 0.000000 0.000000 0.000000 -7.125000 0.000000 0.000000 -6.749975 53.385853 1.397237 0.000000 0.000000 0.000000 -8.296553 8.989495 19.324749 -19.281159 -29.766548 -5.169679 -33.133592 18.115954 -6.185631 0.000000 0.000000 0.000000 7.125000 0.000000 0.000000 -4.694307 22.612692 -2.536592
-1.696848 18.667417 2.031671 -358.398341 29.601284 361.332876 0.000000 0.000000 0.000000 -24.750540 -11.131209 -2.399347 1.494332 7.721939 21.872706 0.150468 -10.688071 -9.651212 0.400864 4.064422 11.257966 0.000000 0.000000 0.000000 14.152493 30.934701 -13.155883 -2.438914 -9.724591 28.090544 -0.708311 -2.077922 -16.782839 -0.290161 3.460687 -9.564505 -4.570630 1.368347 6.793706 -1.605748 1.491024 1.898462 0.783043 0.761897 -1.919279 -4.757038 3.103753 -7.623837 7.033004 3.729003 28.470751 3.728510 2.123633 10.016787 0.000000 0.000000 0.000000 9.976816 -0.418438 -20.816298 16.411308 -26.075179 3.824941 21.674840 17.707816 -21.389832 0.000000 0.000000 0.000000 -7.125000 0.000000 0.000000 -7.272151 52.690384 1.381962 0.000000 0.000000 0.000000 -9.001721 8.664616 19.933347 -19.108637 -29.553427 -5.084321 -32.146974 17.441742 -5.998240 0.000000 0.000000 0.000000 7.125000 0.000000 0.000000 -3.989842 22.910011 -2.127239
-1.645078 18.680395 2.199072 -358.613803 32.001144 361.340012 0.000000 0.000000 0.000000 -24.369391 -11.644805 -1.441471 1.393688 7.468629 21.111534 0.021072 -11.946938 -8.672730 0.441318 4.262592 11.816608 0.000000 0.000000 0.000000 14.134497 32.359841 -13.112053 -2.009790 -8.886114 25.439892 -0.640369 -1.485071 -15.725621 -0.324354 3.657994 -10.116641 -3.821413 1.445976 6.914021 -1.513974 1.650511 2.108495 0.445933 0.836292 -1.759722 -4.701377 3.049624 -7.778935 6.863886 3.718438 28.626175 3.671469 2.115405 10.111993 0.000000 0.000000 0.000000 9.660618 -0.623372 -21.382918 16.506273 -26.202280 3.866820 21.659819 16.740149 -20.584179 0.000000 0.000000 0.000000 -7.125000 0.000000 0.000000 -7.024754 51.849503 1.189622 0.000000 0.000000 0.000000 -9.253585 8.587122 19.391889 -19.084531 -29.523549 -5.072389 -33.813397 16.665399 -6.148592 0.000000 0.000000 0.000000 7.125000 0.000000 0.000000 -5.192831 22.601400 -2.809087
-1.598607 18.681560 2.387798 -358.410765 34.503761 361.487868 0.000000 0.000000 0.000000 -24.242971 -11.861498 -0.528794 1.313120 7.258269 20.482807 -0.148116 -13.914168 -7.879555 0.461121 4.355690 12.079602 0.000000 0.000000 0.000000 14.135868 32.199670 -13.265786 -1.798337 -8.432586 24.036065 -0.556704 -0.940485 -14.465245 -0.276751 3.383100 -9.347219 -3.656984 1.391371 6.874225 -1.374396 1.604444 2.336662 0.506263 0.808639 -1.500165 -5.015037 3.318652 -7.980030 7.086836 4.138752 29.158437 3.878581 2.310815 10.303013 0.000000 0.000000 0.000000 9.274326 -0.598334 -21.294665 16.472441 -26.157028 3.851876 20.957106 16.591202 -19.818934 0.000000 0.000000 0.000000 -7.125000 0.000000 0.000000 -7.482725 50.932678 1.099020 0.000000 0.000000 0.000000 -9.625128 8.619613 19.087990 -19.164410 -29.622517 -5.111901 -31.721760 16.918638 -5.743726 0.000000 0.000000 0.000000 7.125000 0.000000 0.000000 -3.698570 23.239164 -1.943058
-1.552202 18.663943 2.591658 -358.674705 36.973679 361.233554 0.000000 0.000000 0.000000 -23.620351 -11.993165 0.106723 1.317428 7.269909 20.517445 -0.367723 -15.960091 -6.848506 0.528635 4.658798 12.938014 0.000000 0.000000 0.000000 14.882565 31.868182 -12.726563 -1.701881 -8.215448 23.370334 -0.433668 -0.353910 -12.572785 -0.344330 3.769978 -10.430451 -3.087082 1.296694 7.005246 -1.172690 1.511084 2.226612 0.398326 0.765023 -1.674882 -4.212657 3.445159 -7.074002 6.445386 4.357468 29.579086 3.524902 2.432929 10.311948 0.000000 0.000000 0.000000 9.160022 0.519325 -21.551382 16.676045 -26.428738 3.942079 20.903918 16.195800 -19.784908 0.000000 0.000000 0.000000 -7.125000 0.000000 0.000000 -7.524544 50.888557 1.096870 0.000000 0.000000 0.000000 -10.176838 8.639431 19.542868 -18.769548 -29.131319 -4.918124 -32.206505 16.433109 -5.602576 0.000000 0.000000 0.000000 7.125000 0.000000 0.000000 -4.066319 23.370414 -2.124867
-1.497476 18.630345 2.827245 -357.977394 39.612141 361.751948 0.000000 0.000000 0.000000 -23.650786 -11.883611 0.587325 1.299397 7.221915 20.374413 -0.642786 -18.248481 -5.791702 0.571233 4.840410 13.453977 0.000000 0.000000 0.000000 14.936784 31.551660 -12.093939 -1.791256 -8.417120 23.988249 -0.360449 0.095580 -11.307707 -0.117947 2.201804 -6.064149 -3.116862 1.332790 6.405761 -1.240583 1.584687 2.272385 0.354172 0.797917 -1.295785 -3.725605 3.650246 -6.685518 6.408193 4.617097 30.191437 3.471484 2.615472 10.464950 0.000000 0.000000 0.000000 9.101300 0.998074 -21.286648 16.522253 -26.223676 3.873882 19.814925 16.095283 -19.039018 0.000000 0.000000 0.000000 -7.125000 0.000000 0.000000 -8.360332 49.938536 1.024103 0.000000 0.000000 0.000000 -10.128287 8.988908 18.895690 -18.744772 -29.100243 -4.906046 -31.803452 16.052500 -5.629964 0.000000 0.000000 0.000000 7.125000 0.000000 0.000000 -3.767599 23.366468 -1.968432
